<svg width="18" height="18" viewBox="0 0 18 18" fill="none" xmlns="http://www.w3.org/2000/svg">
<rect width="18" height="18" rx="9" fill="black"/>
<g filter="url(#filter0_d_2410_449)">
<path d="M9.04752 12.25C6.45279 12.25 4.75 10.9196 4.75 8.85714C4.75 6.82143 6.45279 5.5 9.04752 5.5C11.444 5.5 13.1288 6.58929 13.3 8.24107H11.0476C10.9395 7.69643 10.1647 7.25893 9.04752 7.25893C7.77719 7.25893 6.95732 7.90179 6.95732 8.85714C6.95732 9.83036 7.77719 10.4821 9.04752 10.4821C10.1647 10.4821 10.9395 10.0446 11.0476 9.48214H13.3C13.1288 11.1518 11.444 12.25 9.04752 12.25Z" fill="white"/>
</g>
<defs>
<filter id="filter0_d_2410_449" x="1.15" y="2.95" width="15.7508" height="13.95" filterUnits="userSpaceOnUse" color-interpolation-filters="sRGB">
<feFlood flood-opacity="0" result="BackgroundImageFix"/>
<feColorMatrix in="SourceAlpha" type="matrix" values="0 0 0 0 0 0 0 0 0 0 0 0 0 0 0 0 0 0 127 0" result="hardAlpha"/>
<feOffset dy="1.05"/>
<feGaussianBlur stdDeviation="1.8"/>
<feComposite in2="hardAlpha" operator="out"/>
<feColorMatrix type="matrix" values="0 0 0 0 0 0 0 0 0 0 0 0 0 0 0 0 0 0 0.45 0"/>
<feBlend mode="normal" in2="BackgroundImageFix" result="effect1_dropShadow_2410_449"/>
<feBlend mode="normal" in="SourceGraphic" in2="effect1_dropShadow_2410_449" result="shape"/>
</filter>
</defs>
</svg>
