<svg preserveAspectRatio="none" width="100%" height="100%" overflow="visible" style="display: block;" viewBox="0 0 14 16" fill="none" xmlns="http://www.w3.org/2000/svg">
<g id="Image (Link to lucaslohr.com)" clip-path="url(#clip0_0_4)">
<path id="Union" d="M11.4512 8.14245C11.5256 8.14362 11.5999 8.15978 11.668 8.1903C11.7359 8.2208 11.7968 8.26529 11.8477 8.32019L13.6768 10.1747C13.8848 10.3859 14.002 10.6721 14.002 10.9706C14.0019 11.269 13.8847 11.5553 13.6768 11.7665L11.8477 13.621C11.798 13.6799 11.7367 13.7277 11.668 13.7616C11.5991 13.7955 11.5237 13.8151 11.4473 13.8182C11.371 13.8213 11.2948 13.8082 11.2236 13.7801C11.1523 13.752 11.0875 13.7089 11.0332 13.6542C10.979 13.5994 10.9363 13.5339 10.9082 13.4618C10.8801 13.3896 10.8673 13.3118 10.8701 13.2342C10.8729 13.1568 10.8907 13.0805 10.9238 13.0106C10.957 12.9407 11.0045 12.8786 11.0625 12.828L12.3369 11.536C11.5073 11.5425 10.6848 11.3804 9.91797 11.0594C9.15097 10.7384 8.45455 10.265 7.87109 9.66687C7.7665 9.56763 7.70411 9.43101 7.69629 9.28601C7.68852 9.14092 7.73664 8.99776 7.83008 8.88757L7.83691 8.87683C7.88474 8.82077 7.94319 8.77478 8.00879 8.74206C8.07436 8.70937 8.1458 8.6906 8.21875 8.6864C8.29172 8.6822 8.36478 8.69269 8.43359 8.71765C8.50242 8.74262 8.56536 8.7817 8.61914 8.83191C9.10343 9.33281 9.68213 9.72993 10.3203 10.0009C10.9583 10.2717 11.6433 10.4106 12.335 10.4091L11.0625 9.11706C11.0082 9.06542 10.9647 9.0025 10.9346 8.93347C10.9045 8.86454 10.8879 8.79007 10.8867 8.71472C10.8855 8.63929 10.8998 8.56395 10.9277 8.49401C10.9557 8.4242 10.9973 8.36079 11.0498 8.30749C11.1024 8.25411 11.1654 8.21182 11.2344 8.18347C11.3032 8.15523 11.3769 8.14132 11.4512 8.14245ZM11.3477 1.20495C11.4255 1.20666 11.5023 1.2247 11.5732 1.25769C11.6442 1.2907 11.708 1.33828 11.7607 1.39733L13.6641 3.35632C13.7821 3.47897 13.8726 3.6271 13.9287 3.78991C14.0048 4.0028 14.0204 4.23424 13.9736 4.45593C13.9268 4.67752 13.819 4.88088 13.6641 5.04187L12.7471 5.9862L11.7607 7.00183C11.6565 7.10879 11.5162 7.17021 11.3691 7.1737C11.2221 7.17717 11.0796 7.12225 10.9707 7.02038C10.8618 6.91844 10.795 6.77709 10.7842 6.62585C10.7735 6.47478 10.819 6.32504 10.9121 6.20788C10.9216 6.19109 10.9321 6.17468 10.9434 6.15905L12.2676 4.7948C9.69128 4.80563 8.35227 6.40381 6.93457 8.09265C5.53075 9.76659 3.95613 11.6813 1.05371 11.912C0.981436 11.9179 0.83434 11.9215 0.744141 11.9257C0.592008 11.9354 0.44243 11.8821 0.328125 11.7782C0.213811 11.6742 0.144302 11.5278 0.134766 11.371C0.125264 11.2142 0.176575 11.0601 0.277344 10.9423C0.378242 10.8244 0.520653 10.7519 0.672852 10.7421L0.904297 10.7303C3.13804 10.5753 4.42197 9.24365 5.67188 7.77429C4.4143 6.29757 3.12178 4.99013 0.869141 4.81433C0.869141 4.81433 0.744756 4.7948 0.703125 4.7948C0.550728 4.79173 0.405634 4.72717 0.297852 4.61608C0.190086 4.50498 0.12796 4.35519 0.125 4.19812C0.125071 4.04031 0.185766 3.88888 0.293945 3.77722C0.402361 3.66548 0.549804 3.60243 0.703125 3.60241L0.981445 3.62976C3.59081 3.84076 5.13443 5.35317 6.43652 6.86804C7.85427 5.19941 9.41729 3.61251 12.2695 3.60534L10.9434 2.23913C10.8862 2.1848 10.8406 2.11883 10.8086 2.04577C10.7766 1.97258 10.7584 1.89362 10.7568 1.81335C10.7552 1.73314 10.7698 1.65343 10.7988 1.57898C10.8279 1.50444 10.8716 1.43656 10.9268 1.37976C10.9818 1.32307 11.047 1.27788 11.1191 1.24792C11.1915 1.21795 11.2697 1.20329 11.3477 1.20495Z" fill="var(--fill-0, white)"/>
</g>
<defs>
<clipPath id="clip0_0_4">
<rect width="14" height="16" fill="white"/>
</clipPath>
</defs>
</svg>
